<?xml version="1.0" encoding="utf-8"?>
<!-- Generator: Adobe Illustrator 16.0.0, SVG Export Plug-In . SVG Version: 6.00 Build 0)  -->
<!DOCTYPE svg PUBLIC "-//W3C//DTD SVG 1.1//EN" "http://www.w3.org/Graphics/SVG/1.1/DTD/svg11.dtd">
<svg version="1.1" id="Capa_1" xmlns="http://www.w3.org/2000/svg" xmlns:xlink="http://www.w3.org/1999/xlink" x="0px" y="0px"
	 width="872px" height="297px" viewBox="0 0 872 297" enable-background="new 0 0 872 297" xml:space="preserve">
<line fill="#FFD200" x1="278.79" y1="186.858" x2="833.873" y2="186.858"/>
<path fill="#FFD200" d="M278.79,186.858c0,0,34.692-0.186,86.73-0.462c52.042-0.105,121.426-0.247,190.811-0.387
	c69.387,0.145,138.771,0.284,190.811,0.392l86.731,0.457l-86.731,0.462c-52.04,0.107-121.424,0.248-190.811,0.39
	c-69.385-0.14-138.769-0.282-190.811-0.384C313.482,187.047,278.79,186.858,278.79,186.858"/>
<path fill="#8A8E91" d="M150.342,234.048c11.543,8.159,23.679,13.576,35.647,13.716c0.385,0,0.764,0.07,1.125,0.188
	c4.676-16.146,3.224-33.524,3.224-33.524C183.29,217,161.454,228.249,150.342,234.048"/>
<path fill="#666B6E" d="M45.758,128.949c-8.274,5.254-14.484,11.263-18.428,17.92c-0.202,0.327-0.457,0.61-0.732,0.87
	c11.643,12.117,27.406,19.556,27.406,19.556c1.329-7.374,2.492-31.86,3.032-44.403C53.056,124.742,49.269,126.737,45.758,128.949"/>
<path fill="#666B6E" d="M194.122,59.972c-0.186-0.347-0.304-0.709-0.383-1.084c-16.34,4.028-30.653,13.969-30.653,13.969
	c5.738,4.837,26.381,18.11,36.974,24.849C201.355,83.619,199.972,70.41,194.122,59.972"/>
<path fill-rule="evenodd" clip-rule="evenodd" fill="#A9C811" d="M215.917,230.208c-10.209-3.201-31.952-11.741-48.983-30.068
	c0,0,56.709-95.563,30.617-142.09c1.247,0.822,2.491,1.678,3.718,2.564c50.297,36.14,61.782,106.203,25.644,156.496
	C223.525,221.831,219.846,226.18,215.917,230.208"/>
<path fill-rule="evenodd" clip-rule="evenodd" fill="#FFD300" d="M27.667,181.511c7.878-7.231,26.15-21.794,50.537-27.372
	c0,0,54.398,96.888,107.735,97.555c-1.341,0.672-2.694,1.322-4.082,1.945c-56.445,25.481-122.858,0.395-148.336-56.042
	C31.133,192.298,29.19,186.934,27.667,181.511"/>
<path fill-rule="evenodd" clip-rule="evenodd" fill="#EF8246" d="M163.873,42.881c2.313,10.438,5.787,33.539-1.565,57.458
	c0,0-111.108-1.345-138.351,44.525c0.082-1.497,0.206-3.004,0.354-4.503c6.14-61.632,61.087-106.608,122.712-100.45
	C152.794,40.489,158.414,41.491,163.873,42.881"/>
<path fill="#FFFFFF" d="M316.533,169.861h-8.368c0-3.26-0.203-8.758-0.608-16.495c-0.398-7.738-0.607-12.562-0.626-14.479h-0.433
	c-0.192,1.153-0.699,3.28-1.525,6.384c-0.822,3.109-2.372,7.683-4.645,13.731c-2.27,6.049-3.404,9.669-3.404,10.859h-6.356
	c0-1.229-1.09-4.878-3.267-10.956c-2.177-6.081-3.6-10.334-4.271-12.773c-0.672-2.435-1.21-4.851-1.612-7.245h-0.427
	c-0.019,2.395-0.258,7.534-0.709,15.413c-0.449,7.884-0.672,13.07-0.672,15.562h-7.592c0-0.578,0.693-6.337,2.083-17.284
	c1.389-10.952,2.085-17.67,2.085-20.161h11.133c0,2.144,1.171,6.88,3.519,14.208c2.351,7.322,3.524,12.009,3.524,14.064h0.433
	c0-2.077,1.334-6.77,4.009-14.095c2.674-7.329,4.015-12.047,4.015-14.177h11.042c0,3.965,0.446,11.046,1.335,21.235
	C316.087,163.844,316.533,169.246,316.533,169.861"/>
<path fill="#FFFFFF" d="M361.84,163.532l-0.226,6.329h-24.474c0.252-5.794,0.374-12.317,0.374-19.585
	c0-6.976-0.121-12.937-0.374-17.86h23.352l-0.32,6.299c-5.745-0.305-10.966-0.462-15.642-0.462c0.193,2.664,0.291,5.81,0.291,9.434
	c4.002,0,8.293-0.104,12.854-0.314v6.01c-4.485-0.192-8.773-0.292-12.854-0.292c0,3.894,0.074,7.534,0.224,10.931
	C350.302,164.021,355.9,163.86,361.84,163.532"/>
<path fill="#FFFFFF" d="M410.779,168.883c-4.568,1.166-8.376,1.755-11.445,1.755c-6.596,0-11.596-1.812-14.997-5.423
	c-3.408-3.617-5.107-7.996-5.107-13.16c0-5.423,1.856-10.139,5.564-14.146c3.708-4.004,8.854-6.013,15.429-6.013
	c3.093,0,5.809,0.283,8.167,0.837l-0.946,6.786c-3.011-0.785-5.713-1.181-8.11-1.181c-4.047,0-7.066,1.242-9.062,3.729
	c-1.993,2.48-2.985,5.515-2.985,9.104c0,3.663,1.111,6.848,3.346,9.574c2.234,2.722,5.314,4.085,9.247,4.085
	c1.095,0,2.36-0.113,3.794-0.35c-0.287-2.126-0.43-4.217-0.43-6.267c0-2.072-0.2-4.401-0.604-6.985h8.14
	c-0.15,2.951-0.229,5.921-0.229,8.912C410.551,162.307,410.629,165.22,410.779,168.883"/>
<path fill="#FFFFFF" d="M463.37,169.861h-9.201c0-1.264-0.873-4.848-2.625-10.758H438.26c-1.8,5.811-2.7,9.396-2.7,10.758h-8.662
	c0-0.75,2.241-6.88,6.718-18.41c4.478-11.522,6.713-17.867,6.713-19.035h10.876c0,1.09,2.026,7.345,6.081,18.762
	C461.342,162.6,463.37,168.821,463.37,169.861 M450.082,153.612c-3.276-9.896-4.918-15.24-4.918-16.049h-0.457
	c0,0.746-1.698,6.098-5.098,16.049H450.082z"/>
<path fill="#FFFFFF" d="M508.104,142.222c0,4.58-1.701,7.97-5.103,10.151c-3.405,2.189-7.579,3.28-12.526,3.28
	c-0.9,0-1.545-0.021-1.924-0.057c0,3.604,0.103,8.354,0.314,14.265h-8.084c0.25-5.541,0.377-12.071,0.377-19.587
	c0-6.899-0.127-12.854-0.377-17.857h5.007c0.707,0,2.069-0.029,4.082-0.087c2.016-0.058,3.76-0.086,5.237-0.086
	c3.642,0,6.719,0.824,9.231,2.471C506.846,136.363,508.104,138.868,508.104,142.222 M500.687,143.802
	c0-4.098-2.725-6.157-8.175-6.157c-1.357,0-2.795,0.149-4.308,0.438c0.212,3.624,0.317,7.725,0.317,12.304
	c0.48,0.038,1.034,0.061,1.669,0.061C497.18,150.448,500.687,148.235,500.687,143.802"/>
<path fill="#FFFFFF" d="M556.782,169.861h-8.514c-2.228-6.788-3.929-10.973-5.122-12.57c-1.185-1.594-3.104-2.387-5.751-2.387
	c-1.112,0-2.177,0.009-3.195,0.028c0,4.927,0.092,9.906,0.264,14.929h-7.995c0.248-5.791,0.374-12.32,0.374-19.588
	c0-6.973-0.126-12.933-0.374-17.856h4.972c0.581,0,1.782-0.031,3.614-0.088c1.828-0.058,3.521-0.085,5.071-0.085
	c8.807,0,13.206,3.01,13.206,9.028c0,4.775-2.516,8.1-7.535,9.985v0.429c1.932,0.536,3.63,2.042,5.089,4.529
	C552.34,158.695,554.307,163.242,556.782,169.861 M545.995,143.402c0-3.813-2.453-5.726-7.36-5.726
	c-1.806,0-3.395,0.137-4.775,0.407c0.212,2.972,0.316,6.843,0.316,11.617c1.051,0.039,1.946,0.059,2.675,0.059
	C542.947,149.76,545.995,147.64,545.995,143.402"/>
<path fill="#FFFFFF" d="M609.195,150.449c0,5.884-1.806,10.762-5.409,14.634c-3.604,3.875-8.06,5.813-13.372,5.813
	c-5.061,0-9.295-1.778-12.708-5.337c-3.419-3.553-5.12-8.075-5.12-13.558c0-5.887,1.801-10.765,5.407-14.636
	c3.604-3.873,8.06-5.813,13.369-5.813c5.068,0,9.299,1.775,12.714,5.322C607.486,140.419,609.195,144.948,609.195,150.449
	 M601.255,151.282c0-4.008-1.024-7.258-3.074-9.752c-2.051-2.487-4.582-3.734-7.592-3.734c-2.803,0-5.179,1.255-7.135,3.765
	c-1.956,2.512-2.933,5.685-2.933,9.521c0,3.984,1.029,7.229,3.091,9.736c2.063,2.499,4.59,3.751,7.581,3.751
	c2.795,0,5.176-1.263,7.132-3.783C600.276,158.264,601.255,155.097,601.255,151.282"/>
<path fill="#FFFFFF" d="M655.889,163.043l-0.492,6.616c-2.72,0.65-5.401,0.976-8.049,0.976c-6.576,0-11.585-1.813-15.021-5.452
	c-3.443-3.628-5.166-8.043-5.166-13.242c0-5.384,1.828-10.073,5.48-14.061c3.651-3.988,8.655-5.982,15.029-5.982
	c2.336,0,4.547,0.269,6.639,0.806l-1.006,6.646c-2.263-0.732-4.432-1.095-6.503-1.095c-3.892,0-6.786,1.232-8.683,3.695
	c-1.897,2.463-2.846,5.457-2.846,8.988c0,3.608,1.123,6.728,3.375,9.376c2.252,2.644,5.412,3.966,9.48,3.966
	C650.503,164.279,653.091,163.865,655.889,163.043"/>
<path fill="#FFFFFF" d="M699.275,163.532l-0.234,6.329h-24.473c0.249-5.794,0.376-12.317,0.376-19.585
	c0-6.976-0.127-12.937-0.376-17.86h23.355l-0.314,6.299c-5.754-0.305-10.973-0.462-15.648-0.462c0.19,2.664,0.29,5.81,0.29,9.434
	c4.004,0,8.288-0.104,12.851-0.314v6.01c-4.485-0.192-8.769-0.292-12.851-0.292c0,3.894,0.072,7.534,0.226,10.931
	C687.733,164.021,693.331,163.86,699.275,163.532"/>
<path fill="#FFFFFF" d="M743.03,159.649c0,7.5-5.386,11.246-16.161,11.246c-3.658,0-7.063-0.446-10.21-1.322l1.411-6.414
	c3.104,1.072,6.041,1.609,8.799,1.609c3.065,0,5.27-0.296,6.615-0.892c1.342-0.592,2.016-1.589,2.016-2.991
	c0-1.454-0.634-2.684-1.905-3.68c-1.088-0.881-3.305-2.031-6.638-3.45c-3.028-1.307-5.283-2.728-6.756-4.258
	c-1.865-1.931-2.792-4.323-2.792-7.163c0-3.293,1.223-5.872,3.666-7.734c2.448-1.861,5.955-2.785,10.539-2.785
	c3.76,0,6.912,0.313,9.462,0.946l-1.066,6.385c-2.585-0.939-5.386-1.41-8.396-1.41c-4.525,0-6.785,1.208-6.785,3.624
	c0,1.283,0.526,2.329,1.583,3.135c0.919,0.685,2.926,1.659,6.012,2.903c3.272,1.324,5.729,2.782,7.357,4.37
	C741.95,153.898,743.03,156.526,743.03,159.649"/>
<path fill="#FFFFFF" d="M797.027,150.449c0,5.884-1.801,10.762-5.407,14.634c-3.604,3.875-8.057,5.813-13.37,5.813
	c-5.063,0-9.298-1.778-12.711-5.337c-3.415-3.553-5.122-8.075-5.122-13.558c0-5.887,1.807-10.765,5.41-14.636
	c3.604-3.873,8.06-5.813,13.366-5.813c5.068,0,9.304,1.775,12.714,5.322C795.323,140.419,797.027,144.948,797.027,150.449
	 M789.091,151.282c0-4.008-1.026-7.258-3.079-9.752c-2.048-2.487-4.579-3.734-7.589-3.734c-2.801,0-5.177,1.255-7.136,3.765
	c-1.956,2.512-2.932,5.685-2.932,9.521c0,3.984,1.026,7.229,3.091,9.736c2.062,2.499,4.587,3.751,7.581,3.751
	c2.792,0,5.176-1.263,7.132-3.783C788.113,158.264,789.091,155.097,789.091,151.282"/>
<path fill="#FFFFFF" d="M840.79,159.649c0,7.5-5.383,11.246-16.161,11.246c-3.663,0-7.068-0.446-10.21-1.322l1.408-6.414
	c3.106,1.072,6.044,1.609,8.802,1.609c3.063,0,5.272-0.296,6.613-0.892c1.344-0.592,2.016-1.589,2.016-2.991
	c0-1.454-0.638-2.684-1.903-3.68c-1.088-0.881-3.306-2.031-6.643-3.45c-3.028-1.307-5.28-2.728-6.759-4.258
	c-1.857-1.931-2.787-4.323-2.787-7.163c0-3.293,1.223-5.872,3.668-7.734c2.446-1.861,5.956-2.785,10.537-2.785
	c3.763,0,6.912,0.313,9.468,0.946l-1.069,6.385c-2.585-0.939-5.389-1.41-8.398-1.41c-4.525,0-6.785,1.208-6.785,3.624
	c0,1.283,0.527,2.329,1.583,3.135c0.919,0.685,2.921,1.659,6.012,2.903c3.278,1.324,5.729,2.782,7.357,4.37
	C839.707,153.898,840.79,156.526,840.79,159.649"/>
<path fill="#FFFFFF" d="M320.346,207.403l-3.647,3.507c-2.484-2.645-5.275-3.969-8.376-3.969c-2.619,0-4.824,0.902-6.615,2.711
	c-1.796,1.812-2.691,4.036-2.691,6.687c0,1.843,0.396,3.482,1.192,4.912c0.791,1.435,1.915,2.556,3.367,3.375
	c1.454,0.812,3.066,1.221,4.838,1.221c1.516,0,2.9-0.285,4.152-0.854c1.252-0.57,2.631-1.613,4.133-3.118l3.537,3.725
	c-2.025,1.997-3.938,3.378-5.74,4.149c-1.801,0.769-3.855,1.158-6.165,1.158c-4.259,0-7.749-1.362-10.461-4.093
	c-2.713-2.725-4.067-6.221-4.067-10.485c0-2.76,0.614-5.208,1.849-7.355c1.239-2.145,3.008-3.87,5.312-5.173
	c2.303-1.301,4.785-1.957,7.444-1.957c2.258,0,4.435,0.481,6.527,1.446C317.026,204.251,318.83,205.627,320.346,207.403"/>
<path fill="#FFFFFF" d="M332.894,202.536h5.528c3.027,0,5.183,0.274,6.467,0.822c1.286,0.543,2.318,1.451,3.099,2.715
	c0.782,1.269,1.173,2.768,1.173,4.498c0,1.816-0.433,3.338-1.294,4.563c-0.867,1.22-2.166,2.146-3.904,2.773l6.491,12.303h-5.701
	l-6.162-11.72h-0.479v11.72h-5.217V202.536z M338.111,213.355h1.637c1.657,0,2.799-0.221,3.426-0.661
	c0.622-0.44,0.939-1.169,0.939-2.188c0-0.604-0.157-1.131-0.466-1.574c-0.311-0.452-0.726-0.769-1.243-0.965
	c-0.522-0.196-1.476-0.293-2.859-0.293h-1.434V213.355z"/>
<polygon fill="#FFFFFF" points="362.324,202.539 377.283,202.539 377.283,207.693 367.503,207.693 367.503,212.694 377.283,212.694 
	377.283,217.758 367.503,217.758 367.503,225.037 377.283,225.037 377.283,230.211 362.324,230.211 "/>
<path fill="#FFFFFF" d="M398.134,202.539h5.29l10.54,27.672h-5.42l-2.146-5.703h-11.18l-2.232,5.703h-5.418L398.134,202.539z
	 M400.812,209.875l-3.676,9.5h7.331L400.812,209.875z"/>
<polygon fill="#FFFFFF" points="425.648,202.539 430.652,202.539 442.377,220.748 442.377,202.539 447.594,202.539 447.594,230.211 
	442.576,230.211 430.867,212.058 430.867,230.211 425.648,230.211 "/>
<path fill="#FFFFFF" d="M461.503,202.539h6.178c3.983,0,6.944,0.497,8.879,1.497c1.936,0.994,3.531,2.617,4.784,4.861
	c1.255,2.244,1.881,4.866,1.881,7.863c0,2.131-0.353,4.093-1.054,5.877c-0.701,1.79-1.671,3.268-2.902,4.45
	c-1.236,1.18-2.571,1.994-4.012,2.445c-1.438,0.451-3.935,0.678-7.484,0.678h-6.27V202.539z M466.682,207.618v17.46h2.421
	c2.384,0,4.114-0.28,5.189-0.831c1.072-0.554,1.951-1.483,2.636-2.786c0.683-1.307,1.024-2.913,1.024-4.821
	c0-2.938-0.814-5.216-2.44-6.837c-1.467-1.456-3.818-2.185-7.063-2.185H466.682z"/>
<path fill="#FFFFFF" d="M508.768,201.843c3.878,0,7.213,1.419,10.002,4.252c2.79,2.835,4.185,6.288,4.185,10.362
	c0,4.041-1.376,7.454-4.128,10.255c-2.754,2.8-6.095,4.192-10.021,4.192c-4.113,0-7.529-1.433-10.252-4.306
	c-2.722-2.873-4.082-6.283-4.082-10.233c0-2.649,0.632-5.079,1.9-7.299s3.01-3.977,5.229-5.277
	C503.817,202.493,506.207,201.843,508.768,201.843 M508.711,206.997c-2.537,0-4.668,0.89-6.396,2.672
	c-1.728,1.781-2.591,4.041-2.591,6.788c0,3.063,1.086,5.481,3.263,7.264c1.69,1.392,3.631,2.088,5.817,2.088
	c2.476,0,4.582-0.903,6.324-2.709c1.738-1.806,2.609-4.031,2.609-6.678c0-2.634-0.877-4.861-2.629-6.688
	C513.353,207.911,511.224,206.997,508.711,206.997"/>
<path fill="#FFFFFF" d="M578.996,207.403l-3.647,3.507c-2.485-2.645-5.274-3.969-8.376-3.969c-2.62,0-4.824,0.902-6.616,2.711
	c-1.795,1.812-2.69,4.036-2.69,6.687c0,1.843,0.396,3.482,1.19,4.912c0.793,1.435,1.916,2.556,3.37,3.375
	c1.451,0.812,3.063,1.221,4.837,1.221c1.516,0,2.9-0.285,4.152-0.854c1.252-0.57,2.631-1.613,4.133-3.118l3.537,3.725
	c-2.026,1.997-3.938,3.378-5.74,4.149c-1.801,0.769-3.856,1.158-6.165,1.158c-4.26,0-7.747-1.362-10.462-4.093
	c-2.714-2.725-4.068-6.221-4.068-10.485c0-2.76,0.615-5.208,1.852-7.355c1.236-2.145,3.007-3.87,5.311-5.173
	c2.303-1.301,4.786-1.957,7.443-1.957c2.258,0,4.435,0.481,6.527,1.446C575.677,204.251,577.48,205.627,578.996,207.403"/>
<path fill="#FFFFFF" d="M604.128,201.843c3.878,0,7.212,1.419,10.002,4.252c2.789,2.835,4.185,6.288,4.185,10.362
	c0,4.041-1.377,7.454-4.128,10.255c-2.755,2.8-6.095,4.192-10.021,4.192c-4.114,0-7.53-1.433-10.252-4.306
	c-2.723-2.873-4.082-6.283-4.082-10.233c0-2.649,0.632-5.079,1.899-7.299c1.269-2.22,3.01-3.977,5.23-5.277
	C599.178,202.493,601.566,201.843,604.128,201.843 M604.071,206.997c-2.537,0-4.668,0.89-6.396,2.672
	c-1.729,1.781-2.591,4.041-2.591,6.788c0,3.063,1.085,5.481,3.262,7.264c1.69,1.392,3.631,2.088,5.818,2.088
	c2.476,0,4.582-0.903,6.323-2.709c1.739-1.806,2.609-4.031,2.609-6.678c0-2.634-0.876-4.861-2.628-6.688
	C608.712,207.911,606.584,206.997,604.071,206.997"/>
<polygon fill="#FFFFFF" points="630.883,202.539 635.887,202.539 647.611,220.748 647.611,202.539 652.827,202.539 652.827,230.211 
	647.811,230.211 636.099,212.058 636.099,230.211 630.883,230.211 "/>
<polygon fill="#FFFFFF" points="666.791,202.539 680.392,202.539 680.392,207.675 671.972,207.675 671.972,212.694 680.392,212.694 
	680.392,217.758 671.972,217.758 671.972,230.211 666.791,230.211 "/>
<rect x="692.291" y="202.539" fill="#FFFFFF" width="5.178" height="27.672"/>
<path fill="#FFFFFF" d="M719.328,202.539h5.289l10.539,27.672h-5.42l-2.145-5.703h-11.183l-2.23,5.703h-5.42L719.328,202.539z
	 M722.005,209.875l-3.677,9.5h7.331L722.005,209.875z"/>
<polygon fill="#FFFFFF" points="746.841,202.539 751.845,202.539 763.569,220.748 763.569,202.539 768.785,202.539 768.785,230.211 
	763.769,230.211 752.057,212.058 752.057,230.211 746.841,230.211 "/>
<polygon fill="#FFFFFF" points="781.223,202.539 797.804,202.539 788.043,225.15 797.169,225.15 797.169,230.211 780.422,230.211 
	790.134,207.75 781.223,207.75 "/>
<path fill="#FFFFFF" d="M817.746,202.539h5.289l10.539,27.672h-5.42l-2.145-5.703h-11.182l-2.23,5.703h-5.421L817.746,202.539z
	 M820.423,209.875l-3.677,9.5h7.331L820.423,209.875z"/>
</svg>
